<?xml version="1.0" standalone="no"?>
<!DOCTYPE svg PUBLIC "-//W3C//DTD SVG 20010904//EN"
 "http://www.w3.org/TR/2001/REC-SVG-20010904/DTD/svg10.dtd">
<svg version="1.0" xmlns="http://www.w3.org/2000/svg"
 width="960.000000pt" height="960.000000pt" viewBox="0 0 960.000000 960.000000"
 preserveAspectRatio="xMidYMid meet">
<metadata>
Created by potrace 1.14, written by Peter Selinger 2001-2017
</metadata>
<g transform="translate(0.000000,960.000000) scale(0.100000,-0.100000)"
fill="#000000" stroke="none">
<path d="M4914 9105 c44 -122 76 -316 76 -467 0 -127 -14 -209 -60 -359 -43
-140 -70 -258 -70 -309 0 -106 85 -191 192 -192 124 -1 218 91 264 260 25 91
30 263 10 363 -27 136 -127 325 -287 544 -73 99 -129 171 -125 160z"/>
<path d="M4704 8624 c-227 -143 -379 -314 -475 -536 -76 -175 -105 -334 -96
-537 7 -164 33 -275 105 -447 27 -66 77 -184 110 -264 90 -215 113 -305 119
-480 8 -232 -27 -358 -132 -469 -104 -109 -201 -148 -352 -139 -184 11 -339
140 -388 324 -14 50 -15 99 -9 324 4 175 2 292 -5 345 -13 98 -50 267 -61 278
-4 4 -10 -16 -13 -45 -14 -111 -90 -392 -164 -603 -86 -246 -335 -712 -658
-1230 -211 -339 -306 -532 -407 -825 -97 -285 -138 -514 -138 -773 0 -232 27
-400 117 -725 82 -301 147 -461 294 -720 153 -270 162 -282 354 -451 340 -301
660 -498 1005 -619 168 -59 177 -59 60 1 -157 80 -275 157 -370 240 -215 191
-332 374 -439 693 -44 129 -54 173 -68 302 -19 162 -13 263 22 437 34 167 120
380 193 476 62 83 154 243 215 375 85 184 124 304 183 574 5 23 6 23 16 6 26
-46 38 -127 38 -255 0 -110 -5 -159 -31 -285 -32 -157 -35 -251 -9 -337 28
-96 100 -149 205 -149 210 0 295 148 295 513 0 192 11 271 49 352 63 134 222
312 436 486 235 191 352 336 400 496 41 134 0 278 -132 466 -31 43 -52 81 -49
85 10 10 109 -47 202 -116 105 -79 191 -180 244 -287 62 -128 75 -188 75 -350
0 -177 -7 -199 -140 -475 -127 -260 -149 -337 -142 -479 7 -162 56 -256 170
-334 85 -58 135 -61 231 -14 126 63 194 159 210 297 4 30 3 115 -2 188 -9 134
-3 257 19 365 6 31 15 57 18 57 4 0 17 -46 30 -102 54 -240 146 -479 276 -718
192 -354 244 -469 309 -683 54 -177 69 -286 69 -497 0 -245 -34 -450 -102
-610 -63 -148 -205 -344 -349 -482 l-97 -92 70 38 c361 197 732 526 1018 904
233 307 459 720 517 945 72 280 63 621 -26 985 -49 199 -94 319 -198 527 -112
221 -191 355 -300 505 -288 396 -409 584 -522 815 -98 201 -160 379 -212 604
-21 91 -43 166 -49 168 -12 4 -48 -80 -65 -157 -8 -33 -12 -116 -12 -205 1
-133 5 -167 35 -295 30 -129 34 -161 34 -290 0 -89 -5 -161 -13 -187 -21 -69
-72 -134 -127 -163 -43 -22 -61 -25 -145 -24 -81 1 -102 4 -145 26 -75 39
-119 92 -150 184 -37 109 -46 189 -55 499 -10 334 -16 380 -69 498 -84 188
-238 384 -533 677 -233 233 -289 301 -358 436 -73 142 -94 222 -94 359 -1 138
13 191 94 362 41 87 72 140 158 271 22 34 3 27 -94 -34z"/>
<path d="M4842 2302 c-13 -4 32 -7 100 -7 112 -1 131 -4 220 -34 155 -53 328
-182 328 -244 0 -13 6 -29 13 -36 10 -10 9 -14 -5 -22 -10 -5 -15 -16 -12 -24
4 -8 1 -15 -5 -15 -13 0 -7 -40 11 -77 15 -31 26 -29 34 5 4 15 11 32 16 39 6
7 5 19 -1 32 -14 25 -14 61 0 61 19 0 -56 93 -122 150 -136 117 -268 170 -444
176 -60 2 -120 0 -133 -4z"/>
<path d="M4720 2270 c-18 -12 -2 -12 25 0 13 6 15 9 5 9 -8 0 -22 -4 -30 -9z"/>
<path d="M4585 2208 c-87 -51 -208 -173 -258 -258 -21 -36 -50 -101 -64 -145
-24 -72 -27 -95 -27 -220 0 -125 3 -148 27 -220 38 -115 91 -199 182 -290 93
-93 161 -136 283 -178 79 -28 99 -30 217 -31 146 0 200 12 322 71 176 86 311
248 371 443 24 82 38 175 21 145 -22 -38 -51 -64 -65 -58 -28 10 -56 85 -65
172 -5 47 -10 95 -12 106 -1 14 -8 19 -24 17 -25 -3 -43 23 -43 62 0 15 -8 30
-20 36 -11 6 -20 21 -20 34 0 13 -8 34 -18 47 -11 13 -22 37 -26 53 -10 43
-44 86 -67 86 -26 0 -24 -18 6 -42 14 -11 23 -24 20 -29 -11 -16 -37 -10 -70
19 -18 15 -46 36 -60 46 l-28 19 24 18 24 18 -26 9 c-13 6 -31 17 -39 27 -29
35 -61 43 -145 33 -53 -6 -88 -5 -103 2 -28 12 -97 3 -113 -16 -6 -8 -18 -14
-26 -14 -7 0 -16 -7 -19 -15 -4 -8 -11 -15 -17 -15 -6 0 -30 -21 -53 -47 l-42
-48 -20 25 c-27 32 -27 36 3 56 14 9 25 24 25 34 0 10 10 24 21 32 16 10 20
20 15 36 -4 12 -10 22 -14 22 -4 0 -38 -19 -77 -42z m486 -192 c48 -20 91 -67
79 -86 -14 -21 -12 -94 2 -108 9 -9 5 -12 -18 -12 -34 0 -56 20 -70 61 -5 15
-31 43 -57 63 -40 30 -51 35 -63 25 -20 -16 -35 0 -28 29 5 16 14 22 35 22 15
0 31 5 34 10 9 14 47 12 86 -4z m-369 -33 c5 -18 24 -44 47 -62 50 -40 66 -40
46 -1 -11 21 -12 30 -4 30 20 0 49 -31 49 -52 0 -12 6 -19 18 -18 25 3 62 -11
62 -22 0 -6 -13 -23 -30 -38 -39 -37 -42 -86 -5 -100 14 -5 25 -16 25 -24 0
-7 6 -19 14 -25 18 -15 26 5 26 63 0 24 3 45 6 48 6 7 100 -38 127 -60 24 -21
21 -51 -7 -62 -28 -10 -43 -30 -24 -30 8 0 23 -6 34 -14 18 -14 18 -15 -13
-28 -37 -16 -93 -82 -93 -110 0 -11 -11 -29 -25 -40 -18 -14 -25 -29 -25 -54
0 -40 -3 -41 -30 -14 -15 15 -33 20 -79 20 -69 0 -84 -12 -79 -67 l3 -38 48 2
c44 1 47 0 47 -23 0 -19 8 -28 30 -35 23 -9 30 -17 30 -38 0 -15 5 -32 12 -39
14 -14 8 -15 -25 -3 -14 6 -28 19 -32 30 -4 13 -33 34 -73 54 -109 54 -140 76
-146 105 -4 15 -13 41 -21 57 -7 17 -17 39 -20 50 l-7 20 -8 -20 c-14 -35 -34
31 -34 115 -1 59 4 84 21 115 12 22 27 69 33 105 7 36 14 77 17 91 5 26 -1 35
-41 63 -40 28 21 86 88 82 25 -1 31 -7 38 -33z m653 -40 c38 -18 50 -49 15
-38 -13 4 -20 2 -20 -6 0 -17 -13 -1 -28 34 -14 32 -13 32 33 10z m-125 -2 c0
-21 -13 -41 -26 -41 -14 0 -19 31 -7 43 10 10 33 8 33 -2z m-281 -40 c26 -14
81 -67 81 -79 0 -19 -25 -30 -47 -21 -15 6 -23 17 -23 33 0 17 -10 30 -30 43
-16 9 -30 21 -30 25 0 11 28 10 49 -1z m51 -631 c0 -5 -9 -10 -20 -10 -11 0
-20 5 -20 10 0 6 9 10 20 10 11 0 20 -4 20 -10z m232 -106 c26 -3 52 -12 59
-20 14 -16 66 -18 105 -4 40 15 52 -2 25 -36 -11 -15 -21 -35 -21 -45 0 -49
-217 -161 -330 -171 -30 -3 -35 0 -38 20 -2 12 -28 43 -58 69 -58 51 -65 70
-34 98 23 20 26 45 8 63 -9 9 -8 12 8 12 11 0 24 4 30 9 19 19 117 21 246 5z"/>
<path d="M5651 1694 c0 -11 3 -14 6 -6 3 7 2 16 -1 19 -3 4 -6 -2 -5 -13z"/>
<path d="M5662 1640 c0 -19 2 -27 5 -17 2 9 2 25 0 35 -3 9 -5 1 -5 -18z"/>
</g>
</svg>
